<svg height="64px" width="64px" version="1.1" id="Layer_1" xmlns="http://www.w3.org/2000/svg" xmlns:xlink="http://www.w3.org/1999/xlink" viewBox="0 0 501.98 501.98" xml:space="preserve" fill="#000000" stroke="#000000" transform="rotate(0)">
<g id="SVGRepo_bgCarrier" stroke-width="0"/>
<g id="SVGRepo_tracerCarrier" stroke-linecap="round" stroke-linejoin="round"/>
<g id="SVGRepo_iconCarrier"> <g> <g> <path style="fill:#57bcff;" d="M257.313,477.564l-44.087-174.986c-1.714-6.803-7.026-12.114-13.828-13.828L24.411,244.662 c-17.567-4.426-19.636-28.556-3.079-35.909L465.139,11.676c15.949-7.082,32.242,9.21,25.16,25.16L293.221,480.643 C285.869,497.2,261.739,495.131,257.313,477.564z"/> <path d="M275.921,501.975c-0.861,0-1.73-0.037-2.604-0.112c-12.538-1.075-22.626-9.654-25.701-21.856l0,0L203.529,305.02 c-0.816-3.239-3.335-5.759-6.575-6.574L21.968,254.359c-12.203-3.075-20.782-13.163-21.856-25.701 c-1.075-12.537,5.661-23.938,17.162-29.045L461.08,2.536c11.078-4.919,23.775-2.56,32.347,6.012s10.931,21.268,6.012,32.347 L302.361,484.701C297.61,495.399,287.413,501.975,275.921,501.975z M267.01,475.12c1.465,5.813,6.505,6.687,8.015,6.816 c1.509,0.132,6.626,0.125,9.058-5.353L481.159,32.777c2.344-5.276-0.843-9.055-1.875-10.087s-4.812-4.219-10.087-1.875 L25.39,217.893c-5.478,2.433-5.481,7.548-5.352,9.058s1.003,6.55,6.816,8.015l174.986,44.087 c10.387,2.617,18.465,10.695,21.082,21.082L267.01,475.12z"/> </g> <g> <path d="M92.008,224.472c-3.833,0-7.489-2.216-9.145-5.944c-2.241-5.048,0.034-10.957,5.081-13.198l223-99.025 c5.052-2.238,10.956,0.034,13.198,5.081c2.241,5.048-0.033,10.957-5.081,13.198l-223,99.025 C94.742,224.193,93.364,224.472,92.008,224.472z"/> </g> <g> <path d="M369.008,101.468c-3.833,0-7.489-2.216-9.146-5.944c-2.241-5.048,0.033-10.956,5.081-13.198l52-23.092 c5.052-2.238,10.957,0.034,13.198,5.081c2.241,5.048-0.033,10.956-5.081,13.198l-52,23.092 C371.741,101.189,370.363,101.468,369.008,101.468z"/> </g> </g> </g>
</svg>